name rise49.5252peak65.1548fall88.8305.mot
datacolumns 19
datarows 17
range 21.22157800000000 21.24824900000000
endheader
time	ground_force1_vx	ground_force1_vy	ground_force1_vz	ground_force1_px	ground_force1_py	ground_force1_pz	ground_force2_vx	ground_force2_vy	ground_force2_vz	ground_force2_px	ground_force2_py	ground_force2_pz	ground_torque1_x	ground_torque1_y	ground_torque1_z	ground_torque2_x	ground_torque2_y	ground_torque2_z	
21.22157800000000	-9.40056400000000	41.27582500000000	-9.65677000000000	0.36439600000000	0.00000000000000	0.07919800000000	-54.35904500000000	809.51107600000000	-51.15030600000000	0.16113500000000	0.00000000000000	-0.08201600000000	0.00000000000000	-6.86769800000000	0.00000000000000	0.00000000000000	-24.54595400000000	0.00000000000000	
21.22325200000000	-10.40528400000000	48.18031700000000	-10.89813500000000	0.36752900000000	0.00000000000000	0.07983200000000	-55.38561000000000	807.44426099999998	-50.91444600000000	0.15997800000000	0.00000000000000	-0.08195000000000	0.00000000000000	-7.80277600000000	0.00000000000000	0.00000000000000	-24.51680700000000	0.00000000000000	
21.22492500000000	-11.25844400000000	55.11752200000000	-12.04024900000000	0.37049600000000	0.00000000000000	0.08042000000000	-56.41602300000000	805.24579200000005	-50.66368200000000	0.15882700000000	0.00000000000000	-0.08188200000000	0.00000000000000	-8.67916100000000	0.00000000000000	0.00000000000000	-24.48602800000000	0.00000000000000	
21.22658500000000	-11.93485700000000	61.99298000000000	-13.05764600000000	0.37332300000000	0.00000000000000	0.08096900000000	-57.44931300000000	802.91233599999998	-50.39759700000000	0.15768200000000	0.00000000000000	-0.08181100000000	0.00000000000000	-9.47808400000000	0.00000000000000	0.00000000000000	-24.45347800000000	0.00000000000000	
21.22825100000000	-12.41902900000000	68.73625400000000	-13.93316400000000	0.37603200000000	0.00000000000000	0.08148200000000	-58.48444300000000	800.44055700000001	-50.11578400000000	0.15654500000000	0.00000000000000	-0.08173800000000	0.00000000000000	-10.18643800000000	0.00000000000000	0.00000000000000	-24.41900700000000	0.00000000000000	
21.22991400000000	-12.70509500000000	75.30292799999999	-14.65809800000000	0.37864200000000	0.00000000000000	0.08196600000000	-59.52030700000000	797.82712700000002	-49.81784400000000	0.15541600000000	0.00000000000000	-0.08166100000000	0.00000000000000	-10.79698700000000	0.00000000000000	0.00000000000000	-24.38245600000000	0.00000000000000	
21.23158200000000	-12.79598000000000	81.67413800000000	-15.23163900000000	0.38116400000000	0.00000000000000	0.08242400000000	-60.55573700000000	795.06873599999994	-49.50339400000000	0.15429700000000	0.00000000000000	-0.08158200000000	0.00000000000000	-11.30805600000000	0.00000000000000	0.00000000000000	-24.34365700000000	0.00000000000000	
21.23324400000000	-12.70198900000000	87.85408300000000	-15.65976200000000	0.38361200000000	0.00000000000000	0.08285800000000	-61.58950000000000	792.16209900000001	-49.17206400000000	0.15318900000000	0.00000000000000	-0.08150100000000	0.00000000000000	-11.72283100000000	0.00000000000000	0.00000000000000	-24.30243000000000	0.00000000000000	
21.23491100000000	-12.43902800000000	93.86606300000000	-15.95375300000000	0.38599300000000	0.00000000000000	0.08327300000000	-62.62029800000000	789.10396900000001	-48.82350400000000	0.15209200000000	0.00000000000000	-0.08141500000000	0.00000000000000	-12.04836300000000	0.00000000000000	0.00000000000000	-24.25858800000000	0.00000000000000	
21.23658500000000	-12.02668100000000	99.74764700000000	-16.12855100000000	0.38831600000000	0.00000000000000	0.08366900000000	-63.64677500000000	785.89114500000005	-48.45738300000000	0.15100900000000	0.00000000000000	-0.08132700000000	0.00000000000000	-12.29444400000000	0.00000000000000	0.00000000000000	-24.21193600000000	0.00000000000000	
21.23824400000000	-11.48632200000000	105.54550200000000	-16.20108900000000	0.39058500000000	0.00000000000000	0.08404900000000	-64.66750900000000	782.52048500000001	-48.07339300000000	0.14994000000000	0.00000000000000	-0.08123500000000	0.00000000000000	-12.47243900000000	0.00000000000000	0.00000000000000	-24.16227000000000	0.00000000000000	
21.23991600000000	-10.83940100000000	111.31037999999999	-16.18875400000000	0.39280600000000	0.00000000000000	0.08441500000000	-65.68102300000000	778.98891200000003	-47.67125300000000	0.14888600000000	0.00000000000000	-0.08114000000000	0.00000000000000	-12.59419400000000	0.00000000000000	0.00000000000000	-24.10938000000000	0.00000000000000	
21.24158300000000	-10.10602500000000	117.09262900000000	-16.10807900000000	0.39498100000000	0.00000000000000	0.08476800000000	-66.68578200000000	775.29343200000005	-47.25070900000000	0.14784900000000	0.00000000000000	-0.08104100000000	0.00000000000000	-12.67108900000000	0.00000000000000	0.00000000000000	-24.05304800000000	0.00000000000000	
21.24324400000000	-9.30388400000000	122.93848199999999	-15.97372300000000	0.39711400000000	0.00000000000000	0.08510900000000	-67.68019600000000	771.43113800000003	-46.81153800000000	0.14682800000000	0.00000000000000	-0.08093900000000	0.00000000000000	-12.71328900000000	0.00000000000000	0.00000000000000	-23.99305000000000	0.00000000000000	
21.24491700000000	-8.44754700000000	128.88729900000001	-15.79777700000000	0.39920700000000	0.00000000000000	0.08544000000000	-68.66262200000000	767.39922799999999	-46.35354700000000	0.14582600000000	0.00000000000000	-0.08083200000000	0.00000000000000	-12.72921100000000	0.00000000000000	0.00000000000000	-23.92915800000000	0.00000000000000	
21.24658200000000	-7.54812500000000	134.96977100000001	-15.58938100000000	0.40126000000000	0.00000000000000	0.08576100000000	-69.63136799999999	763.19501100000002	-45.87658200000000	0.14484200000000	0.00000000000000	-0.08072200000000	0.00000000000000	-12.72521900000000	0.00000000000000	0.00000000000000	-23.86113700000000	0.00000000000000	
21.24824900000000	-6.61324100000000	141.20708600000000	-15.35463100000000	0.40327500000000	0.00000000000000	0.08607400000000	-70.58469400000000	758.81592400000000	-45.38052500000000	0.14387800000000	0.00000000000000	-0.08060800000000	0.00000000000000	-12.70552300000000	0.00000000000000	0.00000000000000	-23.78875000000000	0.00000000000000	
